<!DOCTYPE svg PUBLIC "-//W3C//DTD SVG 1.1//EN" "http://www.w3.org/Graphics/SVG/1.1/DTD/svg11.dtd">
<!-- Uploaded to: SVG Repo, www.svgrepo.com, Transformed by: SVG Repo Mixer Tools -->
<svg fill="#42bd44" version="1.1" id="Capa_1" xmlns="http://www.w3.org/2000/svg" xmlns:xlink="http://www.w3.org/1999/xlink" width="800px" height="800px" viewBox="-3.56 -3.56 42.70 42.70" xml:space="preserve" stroke="#42bd44" transform="rotate(-45)">
<g id="SVGRepo_bgCarrier" stroke-width="0">
<path transform="translate(-3.56, -3.56), scale(1.3343750000000003)" d="M16,29.484358299109672C18.11766065758138,29.610890334233396,19.8886954596442,27.802278867573214,21.428330613241776,26.342819854655374C22.763523699510593,25.077156636205668,23.589949976383263,23.40599497959433,24.231327569719745,21.681675188220808C24.77952302666941,20.207872102830756,24.30153102732054,18.54187439194384,24.87462894281744,17.077575046598568C25.69657691082678,14.977448979274808,28.279672079231478,13.599053220577181,28.277364393854313,11.34380985558181C28.275168246545075,9.197569862589223,26.340036040965195,7.552838731687403,24.863289084961508,5.995414782174082C23.300095771294863,4.346821775412912,21.555322531301154,2.8662580133512154,19.443858712538926,2.027715957225242C17.176810502119977,1.1273854610030432,14.686935680180092,0.4830752907368262,12.304794541761634,1.0079621237264522C9.906925296437118,1.5363145264464766,7.6975306727993384,2.9943298596703816,6.2057916768381,4.944624182858998C4.791416845082703,6.793772869527157,5.09885174097284,9.376074860420296,4.247011480425044,11.542679393005683C3.3825737813334316,13.741324753798049,0.7408879121361911,15.476346713407006,1.1502519222472483,17.80308586195168C1.5654275478258333,20.16285701353178,4.358311045378773,21.24181598175405,6.219045249299866,22.751305600884432C7.674610782393364,23.93210888678017,9.357921461954223,24.651082850404194,10.901778563348538,25.713849368312182C12.668485232290504,26.93002196163092,13.858980913451513,29.356430577881135,16,29.484358299109672" fill="#b9efc2" strokewidth="0"/>
</g>
<g id="SVGRepo_tracerCarrier" stroke-linecap="round" stroke-linejoin="round"/>
<g id="SVGRepo_iconCarrier"> <g> <path d="M26.432,26.942v-5.771h-6.346h-4.588H9.153v5.771L0,17.792l9.153-9.15v5.773h6.345h4.588h6.346V8.642l9.152,9.15 L26.432,26.942z"/> </g> </g>
</svg>