<!DOCTYPE svg PUBLIC "-//W3C//DTD SVG 1.1//EN" "http://www.w3.org/Graphics/SVG/1.1/DTD/svg11.dtd">
<!-- Uploaded to: SVG Repo, www.svgrepo.com, Transformed by: SVG Repo Mixer Tools -->
<svg fill="#2a8793" height="800px" width="800px" version="1.1" id="Layer_1" xmlns="http://www.w3.org/2000/svg" xmlns:xlink="http://www.w3.org/1999/xlink" viewBox="-45.83 -45.83 549.97 549.97" xml:space="preserve" stroke="#2a8793" transform="rotate(0)">
<g id="SVGRepo_bgCarrier" stroke-width="0" transform="translate(0,0), scale(1)">
<path transform="translate(-45.83, -45.83), scale(17.1865625)" d="M16,30.574114730091473C20.233064088704822,30.380570727218092,23.520946455444214,27.415894486669256,26.247676750793133,24.172249506626425C29.097248131294226,20.782476077474957,32.096046837835196,16.868154068567414,31.160372165878975,12.539743983812063C30.216617419452305,8.173955655451643,25.92893929657707,5.673084088225266,21.853529208758935,3.8450213525509387C17.95232050373334,2.095098251790377,13.655784574771953,1.296127039673881,9.697285664371336,2.9122788255838774C5.419458943567268,4.658803821833354,1.7082227649954786,7.99859909349959,0.6584934609974091,12.498401245158842C-0.396316959712822,17.01998426911262,1.50135860859797,21.626449155321712,4.505783796386014,25.166331548443083C7.388467686929289,28.56277556393928,11.549798036108044,30.777586703025896,16,30.574114730091473" fill="#cfe9f2" strokewidth="0"/>
</g>
<g id="SVGRepo_tracerCarrier" stroke-linecap="round" stroke-linejoin="round" stroke="#CCCCCC" stroke-width="1.83324"/>
<g id="SVGRepo_iconCarrier"> <g> <g> <g> <path d="M427.462,0.374H188.806c-4.608,0-8.979,1.023-12.909,2.842C165.32,8.112,157.96,18.82,157.96,31.221v15.423 c7.953,0,184.574,0,192.378,0c34.192,0,62.009,27.817,62.009,62.009c0,8.963,0,182.604,0,191.496v0.575h15.116 c16.923,0,30.847-13.772,30.847-30.846V31.221C458.309,14.212,444.472,0.374,427.462,0.374z"/> <path d="M350.338,77.806H111.682c-17.009,0-30.846,13.838-30.846,30.847v17.771c13.184,0,183.023,0,188.667,0 c34.192,0,62.009,27.817,62.009,62.009c0,6.116,0,175.962,0,189.722h18.827c17.009,0,30.847-13.838,30.847-30.846V108.653 C381.185,91.644,367.347,77.806,350.338,77.806z"/> <path d="M269.503,157.586H30.847C13.838,157.586,0,171.424,0,188.433V427.09c0,17.008,13.838,30.846,30.847,30.846h238.656 c17.009,0,30.847-13.838,30.847-30.846V188.433C300.349,171.424,286.512,157.586,269.503,157.586z"/> </g> </g> </g> </g>
</svg>