<?xml version="1.0" encoding="utf-8"?>
<!-- Uploaded to: SVG Repo, www.svgrepo.com, Generator: SVG Repo Mixer Tools -->
<svg width="800px" height="800px" viewBox="0 0 1024 1024" class="icon"  version="1.1" xmlns="http://www.w3.org/2000/svg"><path d="M435.2 149.76c40.576 0 79.872 7.168 117.0944 20.736l10.112 3.84 7.936 3.328 7.5264 3.328c4.8128 2.2272 9.472 4.5056 13.9264 6.8608l6.5792 3.584 4.5824 2.7136 17.9712 16.5632 1.1776 3.2c0.4096 1.536 0.6912 3.072 0.8448 4.6592l0.1024 2.3552v153.344l-0.1536 8.1664a192.256 192.256 0 0 1-57.0112 129.152l-5.5808 5.2992-15.3344 13.4144 12.4928 4.1984 14.1056 4.9408 3.1488 1.2032a189.1328 189.1328 0 0 0-44.544 38.8864 335.8208 335.8208 0 0 0-94.976-14.08c-52.096 0-104.6272 13.0048-156.2368 37.7088l-10.3168 5.12-7.424 3.84-12.1088 6.7328c-11.9296 6.8608-23.552 14.2848-34.816 22.2208l-11.1104 8.1408-2.9952 2.2272v94.7456h286.6432c1.1776 17.8944 4.864 35.072 10.7264 51.2512l-322.816-0.0256-3.2256-0.256a25.3952 25.3952 0 0 1-21.1456-19.8656l-0.4608-2.9184-0.1536-3.1744 0.0256-132.1984 0.2816-3.6352 0.7168-3.2768c1.0752-3.712 2.9696-7.168 5.632-10.1376l2.1248-2.1504 11.5456-9.3696 10.1376-7.6288 11.008-7.7568c7.424-5.12 15.0272-9.984 22.784-14.72l11.7248-6.912 12.032-6.6048 11.5712-6.016c11.7248-5.888 23.7056-11.264 35.9168-16.1792l12.288-4.736 28.0064-9.8048-10.24-8.6272-5.9904-5.248a192.3328 192.3328 0 0 1-61.824-134.6304l-0.1536-7.3728V220.672l0.256-3.3024c0.8448-6.0672 3.7888-11.5968 8.32-15.6672l2.3808-1.8944 2.2016-1.4848 5.0176-3.1232 6.7072-3.8912 8.6528-4.608 8.9088-4.4288 9.1136-4.1216 9.3696-3.8912 11.008-4.1984c33.4592-12.032 68.5824-18.816 104.0896-20.096L435.2 149.76z m0 183.7824a291.5584 291.5584 0 0 0-127.6672 29.44l-5.76 2.9184-3.9936 2.0992v6.0928l0.128 6.1696c3.1488 74.7776 63.6416 133.9904 137.2928 133.9904 71.6032 0 130.8672-55.9616 136.9088-127.872l0.384-5.7088 0.128-6.2208v-6.4768l-3.9424-2.048-5.9648-3.0464-6.4-3.0208-6.5792-2.9184-5.6576-2.3552-10.5472-3.968a293.5808 293.5808 0 0 0-98.304-17.0752z m0-132.5568a291.2256 291.2256 0 0 0-127.6672 29.44l-5.76 2.944-3.9936 2.0736v74.752l9.3184-2.9952 11.52-4.352a344.1152 344.1152 0 0 1 116.608-20.5568c40.5504 0 79.872 7.168 116.864 20.6592l10.0096 3.84 10.5216 3.3792V235.4432l-3.9424-2.048-5.9904-3.072-6.3744-2.9952-6.5792-2.9184-5.6832-2.3552-10.5472-3.968A293.5808 293.5808 0 0 0 435.2 200.96z" fill="#ED892D" /><path d="M655.0016 537.6a51.2 51.2 0 0 1 69.1456-2.9952l3.2512 2.9952 135.5008 135.5008a25.6 25.6 0 0 1-33.792 38.3232l-2.4064-2.1248L691.2 573.7984l-135.5008 135.5008a25.6 25.6 0 0 1-38.3232-33.792l2.1248-2.4064L655.0016 537.6z" fill="#BE4BDB" /><path d="M793.6 614.4a25.6 25.6 0 0 1 25.4208 22.6048L819.2 640v128a51.2 51.2 0 0 1-47.36 51.072L768 819.2h-153.6a51.2 51.2 0 0 1-51.072-47.36L563.2 768v-128a25.6 25.6 0 0 1 51.0208-2.9952L614.4 640v128h153.6v-128a25.6 25.6 0 0 1 25.6-25.6z" fill="#BE4BDB" /></svg>