<?xml version="1.0" encoding="utf-8"?><!-- Uploaded to: SVG Repo, www.svgrepo.com, Generator: SVG Repo Mixer Tools -->
<svg width="800px" height="800px" viewBox="0 0 24 24" id="Flat_Color" data-name="Flat Color" xmlns="http://www.w3.org/2000/svg"><path id="primary" d="M14,6A4,4,0,0,0,6,6c0,2.06,1.56,6,4,6S14,8.06,14,6Zm-4,4c-.75,0-2-2.5-2-4a2,2,0,0,1,4,0C12,7.5,10.75,10,10,10Zm0,2c-2.44,0-4,3.94-4,6a4,4,0,0,0,8,0C14,15.94,12.44,12,10,12Zm0,8a2,2,0,0,1-2-2c0-1.5,1.25-4,2-4s2,2.5,2,4A2,2,0,0,1,10,20Z" style="fill:#000000"></path><path id="secondary" d="M18.71,15.29A7.78,7.78,0,0,0,13.17,13H14a1,1,0,0,0,0-2H13a1,1,0,0,0,0-2H7a1,1,0,0,0,0,2H6a1,1,0,0,0,0,2H7a1,1,0,0,0,0,2h6.17a5.79,5.79,0,0,1,4.12,1.71,1,1,0,0,0,1.42,0A1,1,0,0,0,18.71,15.29Z" style="fill:#2ca9bc"></path></svg>